<svg width="95" height="101" viewBox="0 0 95 101" fill="none" xmlns="http://www.w3.org/2000/svg">
<path d="M1 10.5L10.3171 0.5L19.6341 8L28.9512 0.5L38.2683 8L47.5854 0.5L56.9024 8L66.2195 0.5L75.5366 8L84.8537 0.5L94.1707 10.5L87.1829 20.5L94.1707 30.5L87.1829 40.5L94.1707 50.5L87.1829 60.5L94.1707 70.5L87.1829 80.5L94.1707 90.5L84.8537 100.5L75.5366 93L66.2195 100.5L56.9024 93L47.5854 100.5L38.2683 93L28.9512 100.5L19.6341 93L10.3171 100.5L1 90.5L7.9878 80.5L1 70.5L7.9878 60.5L1 50.5L7.9878 40.5L1 30.5L7.9878 20.5L1 10.5Z" fill="white" stroke="#D4D4D4" stroke-linecap="round" stroke-linejoin="round"/>
</svg>
